<?xml version="1.0" encoding="utf-8"?>
<!-- Generator: Adobe Illustrator 28.0.0, SVG Export Plug-In . SVG Version: 6.00 Build 0)  -->
<svg version="1.1" id="图层_1" xmlns="http://www.w3.org/2000/svg" xmlns:xlink="http://www.w3.org/1999/xlink" x="0px" y="0px"
	 viewBox="0 0 595 842" style="enable-background:new 0 0 595 842;" xml:space="preserve">
<style type="text/css">
	.st0{clip-path:url(#SVGID_00000005976905197425752150000014451500090373622163_);fill:#FFFFFF;}
	.st1{fill:#FFFFFF;}
	.st2{fill:none;stroke:#262626;stroke-width:0.5;stroke-linejoin:round;stroke-miterlimit:10;}
	.st3{fill:#0072BD;}
	.st4{fill:none;stroke:#000000;stroke-width:0.5;stroke-miterlimit:10;}
	.st5{fill:none;stroke:#000000;stroke-width:0.5;stroke-linejoin:round;stroke-miterlimit:10;}
	.st6{fill:none;stroke:#000000;stroke-width:1.5;stroke-linejoin:round;stroke-miterlimit:10;}
	.st7{font-family:'ArialMT';}
	.st8{font-size:14px;}
	.st9{fill:none;stroke:#262626;stroke-width:0.5;stroke-linecap:square;stroke-linejoin:round;stroke-miterlimit:10;}
	.st10{fill:#262626;}
	.st11{font-size:10px;}
	.st12{font-size:11px;}
</style>
<g>
	<defs>
		<rect id="SVGID_1_" x="55.1" y="234.9" width="485" height="372"/>
	</defs>
	<clipPath id="SVGID_00000005960987116584310140000000649530389832737201_">
		<use xlink:href="#SVGID_1_"  style="overflow:visible;"/>
	</clipPath>
	
		<rect x="55.1" y="234.9" style="clip-path:url(#SVGID_00000005960987116584310140000000649530389832737201_);fill:#FFFFFF;" width="485" height="372"/>
</g>
<rect x="55.1" y="234.9" class="st1" width="485" height="372"/>
<rect x="128.6" y="262.9" class="st1" width="93" height="284"/>
<line class="st2" x1="128.6" y1="546.9" x2="221.6" y2="546.9"/>
<path class="st3" d="M199.8,546.9V324h-21.9v222.9H199.8z M172.4,546.9V349.6h-21.9v197.4H172.4z"/>
<rect x="150.5" y="349.6" class="st4" width="21.9" height="197.4"/>
<rect x="177.9" y="324" class="st4" width="21.9" height="222.9"/>
<line class="st5" x1="161.5" y1="349.6" x2="161.5" y2="351.6"/>
<line class="st5" x1="188.8" y1="324" x2="188.8" y2="334"/>
<line class="st5" x1="161.5" y1="349.6" x2="161.5" y2="347.6"/>
<line class="st5" x1="188.8" y1="324" x2="188.8" y2="314"/>
<line x1="158.5" y1="351.6" x2="164.5" y2="351.6"/>
<line class="st4" x1="158.5" y1="351.6" x2="164.5" y2="351.6"/>
<line x1="185.8" y1="334" x2="191.8" y2="334"/>
<line class="st4" x1="185.8" y1="334" x2="191.8" y2="334"/>
<line x1="158.5" y1="347.6" x2="164.5" y2="347.6"/>
<line class="st4" x1="158.5" y1="347.6" x2="164.5" y2="347.6"/>
<line x1="185.8" y1="314" x2="191.8" y2="314"/>
<line class="st4" x1="185.8" y1="314" x2="191.8" y2="314"/>
<line class="st6" x1="161.5" y1="302.3" x2="188.8" y2="302.3"/>
<text transform="matrix(1 0 0 1 163.6378 299.3149)" class="st7 st8">n.s.</text>
<line class="st9" x1="128.6" y1="546.9" x2="221.6" y2="546.9"/>
<line class="st9" x1="128.6" y1="262.9" x2="221.6" y2="262.9"/>
<line class="st9" x1="161.5" y1="546.9" x2="161.5" y2="544.1"/>
<line class="st9" x1="188.8" y1="546.9" x2="188.8" y2="544.1"/>
<line class="st9" x1="161.5" y1="262.9" x2="161.5" y2="265.8"/>
<line class="st9" x1="188.8" y1="262.9" x2="188.8" y2="265.8"/>
<text transform="matrix(0.866 -0.5 0.5 0.866 136.1505 576.1962)" class="st10 st7 st11">Original</text>
<text transform="matrix(0.866 -0.5 0.5 0.866 114.1398 604.6962)" class="st10 st7 st11">New Images Trained</text>
<line class="st9" x1="128.6" y1="546.9" x2="128.6" y2="262.9"/>
<line class="st9" x1="221.6" y1="546.9" x2="221.6" y2="262.9"/>
<line class="st9" x1="128.6" y1="546.9" x2="131.5" y2="546.9"/>
<line class="st9" x1="128.6" y1="518.5" x2="131.5" y2="518.5"/>
<line class="st9" x1="128.6" y1="490.1" x2="131.5" y2="490.1"/>
<line class="st9" x1="128.6" y1="461.7" x2="131.5" y2="461.7"/>
<line class="st9" x1="128.6" y1="433.3" x2="131.5" y2="433.3"/>
<line class="st9" x1="128.6" y1="404.9" x2="131.5" y2="404.9"/>
<line class="st9" x1="128.6" y1="376.5" x2="131.5" y2="376.5"/>
<line class="st9" x1="128.6" y1="348.1" x2="131.5" y2="348.1"/>
<line class="st9" x1="128.6" y1="319.7" x2="131.5" y2="319.7"/>
<line class="st9" x1="128.6" y1="291.3" x2="131.5" y2="291.3"/>
<line class="st9" x1="128.6" y1="262.9" x2="131.5" y2="262.9"/>
<line class="st9" x1="221.6" y1="546.9" x2="218.8" y2="546.9"/>
<line class="st9" x1="221.6" y1="518.5" x2="218.8" y2="518.5"/>
<line class="st9" x1="221.6" y1="490.1" x2="218.8" y2="490.1"/>
<line class="st9" x1="221.6" y1="461.7" x2="218.8" y2="461.7"/>
<line class="st9" x1="221.6" y1="433.3" x2="218.8" y2="433.3"/>
<line class="st9" x1="221.6" y1="404.9" x2="218.8" y2="404.9"/>
<line class="st9" x1="221.6" y1="376.5" x2="218.8" y2="376.5"/>
<line class="st9" x1="221.6" y1="348.1" x2="218.8" y2="348.1"/>
<line class="st9" x1="221.6" y1="319.7" x2="218.8" y2="319.7"/>
<line class="st9" x1="221.6" y1="291.3" x2="218.8" y2="291.3"/>
<line class="st9" x1="221.6" y1="262.9" x2="218.8" y2="262.9"/>
<text transform="matrix(1 0 0 1 119.5469 550.4449)" class="st10 st7 st11">0</text>
<text transform="matrix(1 0 0 1 113.5469 522.0449)" class="st10 st7 st11">10</text>
<text transform="matrix(1 0 0 1 113.5469 493.6449)" class="st10 st7 st11">20</text>
<text transform="matrix(1 0 0 1 113.5469 465.2449)" class="st10 st7 st11">30</text>
<text transform="matrix(1 0 0 1 113.5469 436.8448)" class="st10 st7 st11">40</text>
<text transform="matrix(1 0 0 1 113.5469 408.4449)" class="st10 st7 st11">50</text>
<text transform="matrix(1 0 0 1 113.5469 380.0449)" class="st10 st7 st11">60</text>
<text transform="matrix(1 0 0 1 113.5469 351.6449)" class="st10 st7 st11">70</text>
<text transform="matrix(1 0 0 1 113.5469 323.2449)" class="st10 st7 st11">80</text>
<text transform="matrix(1 0 0 1 113.5469 294.8448)" class="st10 st7 st11">90</text>
<text transform="matrix(1 0 0 1 108.5469 266.4448)" class="st10 st7 st11">100</text>
<text transform="matrix(-4.375000e-08 -1 1 -4.375000e-08 103.456 457.9449)" class="st10 st7 st12">Number of Pinwheels</text>
<rect x="264.6" y="262.9" class="st1" width="93" height="284"/>
<line class="st2" x1="264.6" y1="546.9" x2="357.6" y2="546.9"/>
<path class="st3" d="M335.8,546.9V357.5h-21.9v189.4H335.8z M308.4,546.9V328.7h-21.9v218.3H308.4z"/>
<rect x="286.5" y="328.7" class="st4" width="21.9" height="218.3"/>
<rect x="313.9" y="357.5" class="st4" width="21.9" height="189.4"/>
<line class="st5" x1="297.5" y1="328.7" x2="297.5" y2="340.6"/>
<line class="st5" x1="324.8" y1="357.5" x2="324.8" y2="374.6"/>
<line class="st5" x1="297.5" y1="328.7" x2="297.5" y2="316.8"/>
<line class="st5" x1="324.8" y1="357.5" x2="324.8" y2="340.5"/>
<line x1="294.5" y1="340.6" x2="300.5" y2="340.6"/>
<line class="st4" x1="294.5" y1="340.6" x2="300.5" y2="340.6"/>
<line x1="321.8" y1="374.6" x2="327.8" y2="374.6"/>
<line class="st4" x1="321.8" y1="374.6" x2="327.8" y2="374.6"/>
<line x1="294.5" y1="316.8" x2="300.5" y2="316.8"/>
<line class="st4" x1="294.5" y1="316.8" x2="300.5" y2="316.8"/>
<line x1="321.8" y1="340.5" x2="327.8" y2="340.5"/>
<line class="st4" x1="321.8" y1="340.5" x2="327.8" y2="340.5"/>
<line class="st6" x1="297.5" y1="305.3" x2="324.8" y2="305.3"/>
<text transform="matrix(1 0 0 1 299.6378 302.3008)" class="st7 st8">n.s.</text>
<line class="st9" x1="264.6" y1="546.9" x2="357.6" y2="546.9"/>
<line class="st9" x1="264.6" y1="262.9" x2="357.6" y2="262.9"/>
<line class="st9" x1="297.5" y1="546.9" x2="297.5" y2="544.1"/>
<line class="st9" x1="324.8" y1="546.9" x2="324.8" y2="544.1"/>
<line class="st9" x1="297.5" y1="262.9" x2="297.5" y2="265.8"/>
<line class="st9" x1="324.8" y1="262.9" x2="324.8" y2="265.8"/>
<text transform="matrix(0.866 -0.5 0.5 0.866 272.1505 576.1962)" class="st10 st7 st11">Original</text>
<text transform="matrix(0.866 -0.5 0.5 0.866 250.14 604.6962)" class="st10 st7 st11">New Images Trained</text>
<line class="st9" x1="264.6" y1="546.9" x2="264.6" y2="262.9"/>
<line class="st9" x1="357.6" y1="546.9" x2="357.6" y2="262.9"/>
<line class="st9" x1="264.6" y1="546.9" x2="267.5" y2="546.9"/>
<line class="st9" x1="264.6" y1="511.4" x2="267.5" y2="511.4"/>
<line class="st9" x1="264.6" y1="475.9" x2="267.5" y2="475.9"/>
<line class="st9" x1="264.6" y1="440.4" x2="267.5" y2="440.4"/>
<line class="st9" x1="264.6" y1="404.9" x2="267.5" y2="404.9"/>
<line class="st9" x1="264.6" y1="369.4" x2="267.5" y2="369.4"/>
<line class="st9" x1="264.6" y1="333.9" x2="267.5" y2="333.9"/>
<line class="st9" x1="264.6" y1="298.4" x2="267.5" y2="298.4"/>
<line class="st9" x1="264.6" y1="262.9" x2="267.5" y2="262.9"/>
<line class="st9" x1="357.6" y1="546.9" x2="354.8" y2="546.9"/>
<line class="st9" x1="357.6" y1="511.4" x2="354.8" y2="511.4"/>
<line class="st9" x1="357.6" y1="475.9" x2="354.8" y2="475.9"/>
<line class="st9" x1="357.6" y1="440.4" x2="354.8" y2="440.4"/>
<line class="st9" x1="357.6" y1="404.9" x2="354.8" y2="404.9"/>
<line class="st9" x1="357.6" y1="369.4" x2="354.8" y2="369.4"/>
<line class="st9" x1="357.6" y1="333.9" x2="354.8" y2="333.9"/>
<line class="st9" x1="357.6" y1="298.4" x2="354.8" y2="298.4"/>
<line class="st9" x1="357.6" y1="262.9" x2="354.8" y2="262.9"/>
<text transform="matrix(1 0 0 1 255.5469 550.4449)" class="st10 st7 st11">0</text>
<text transform="matrix(1 0 0 1 247.5469 514.9448)" class="st10 st7 st11">0.1</text>
<text transform="matrix(1 0 0 1 247.5469 479.4449)" class="st10 st7 st11">0.2</text>
<text transform="matrix(1 0 0 1 247.5469 443.9449)" class="st10 st7 st11">0.3</text>
<text transform="matrix(1 0 0 1 247.5469 408.4449)" class="st10 st7 st11">0.4</text>
<text transform="matrix(1 0 0 1 247.5469 372.9449)" class="st10 st7 st11">0.5</text>
<text transform="matrix(1 0 0 1 247.5469 337.4449)" class="st10 st7 st11">0.6</text>
<text transform="matrix(1 0 0 1 247.5469 301.9449)" class="st10 st7 st11">0.7</text>
<text transform="matrix(1 0 0 1 247.5469 266.4448)" class="st10 st7 st11">0.8</text>
<text transform="matrix(-4.375000e-08 -1 1 -4.375000e-08 242.456 462.9449)" class="st10 st7 st12">Hypercolumn size (mm)</text>
<rect x="401.1" y="262.9" class="st1" width="93" height="284"/>
<line class="st2" x1="401.1" y1="546.9" x2="494.1" y2="546.9"/>
<path class="st3" d="M472.3,546.9V326.1h-21.9v220.9H472.3z M444.9,546.9V332H423v215H444.9z"/>
<rect x="423" y="332" class="st4" width="21.9" height="215"/>
<rect x="450.4" y="326.1" class="st4" width="21.9" height="220.9"/>
<line class="st5" x1="434" y1="332" x2="434" y2="340.7"/>
<line class="st5" x1="461.3" y1="326.1" x2="461.3" y2="330.8"/>
<line class="st5" x1="434" y1="332" x2="434" y2="323.3"/>
<line class="st5" x1="461.3" y1="326.1" x2="461.3" y2="321.3"/>
<line x1="431" y1="340.7" x2="437" y2="340.7"/>
<line class="st4" x1="431" y1="340.7" x2="437" y2="340.7"/>
<line x1="458.3" y1="330.8" x2="464.3" y2="330.8"/>
<line class="st4" x1="458.3" y1="330.8" x2="464.3" y2="330.8"/>
<line x1="431" y1="323.3" x2="437" y2="323.3"/>
<line class="st4" x1="431" y1="323.3" x2="437" y2="323.3"/>
<line x1="458.3" y1="321.3" x2="464.3" y2="321.3"/>
<line class="st4" x1="458.3" y1="321.3" x2="464.3" y2="321.3"/>
<line class="st6" x1="434" y1="310" x2="461.3" y2="310"/>
<text transform="matrix(1 0 0 1 436.1378 307.0488)" class="st7 st8">n.s.</text>
<line class="st9" x1="401.1" y1="546.9" x2="494.1" y2="546.9"/>
<line class="st9" x1="401.1" y1="262.9" x2="494.1" y2="262.9"/>
<line class="st9" x1="434" y1="546.9" x2="434" y2="544.1"/>
<line class="st9" x1="461.3" y1="546.9" x2="461.3" y2="544.1"/>
<line class="st9" x1="434" y1="262.9" x2="434" y2="265.8"/>
<line class="st9" x1="461.3" y1="262.9" x2="461.3" y2="265.8"/>
<text transform="matrix(0.866 -0.5 0.5 0.866 408.6505 576.1962)" class="st10 st7 st11">Original</text>
<text transform="matrix(0.866 -0.5 0.5 0.866 386.64 604.6962)" class="st10 st7 st11">New Images Trained</text>
<line class="st9" x1="401.1" y1="546.9" x2="401.1" y2="262.9"/>
<line class="st9" x1="494.1" y1="546.9" x2="494.1" y2="262.9"/>
<line class="st9" x1="401.1" y1="546.9" x2="404" y2="546.9"/>
<line class="st9" x1="401.1" y1="490.1" x2="404" y2="490.1"/>
<line class="st9" x1="401.1" y1="433.3" x2="404" y2="433.3"/>
<line class="st9" x1="401.1" y1="376.5" x2="404" y2="376.5"/>
<line class="st9" x1="401.1" y1="319.7" x2="404" y2="319.7"/>
<line class="st9" x1="401.1" y1="262.9" x2="404" y2="262.9"/>
<line class="st9" x1="494.1" y1="546.9" x2="491.3" y2="546.9"/>
<line class="st9" x1="494.1" y1="490.1" x2="491.3" y2="490.1"/>
<line class="st9" x1="494.1" y1="433.3" x2="491.3" y2="433.3"/>
<line class="st9" x1="494.1" y1="376.5" x2="491.3" y2="376.5"/>
<line class="st9" x1="494.1" y1="319.7" x2="491.3" y2="319.7"/>
<line class="st9" x1="494.1" y1="262.9" x2="491.3" y2="262.9"/>
<text transform="matrix(1 0 0 1 392.0469 550.4449)" class="st10 st7 st11">0</text>
<text transform="matrix(1 0 0 1 378.0469 493.6449)" class="st10 st7 st11">0.05</text>
<text transform="matrix(1 0 0 1 384.0469 436.8448)" class="st10 st7 st11">0.1</text>
<text transform="matrix(1 0 0 1 378.0469 380.0449)" class="st10 st7 st11">0.15</text>
<text transform="matrix(1 0 0 1 384.0469 323.2449)" class="st10 st7 st11">0.2</text>
<text transform="matrix(1 0 0 1 378.0469 266.4448)" class="st10 st7 st11">0.25</text>
<text transform="matrix(-4.375000e-08 -1 1 -4.375000e-08 373.456 434.4449)" class="st10 st7 st12">NNPD (mm)</text>
</svg>
